<svg width="834" height="468" viewBox="0 0 834 468" fill="none" xmlns="http://www.w3.org/2000/svg">
<g filter="url(#filter0_d)">
<path d="M88.5305 427.47C88.5305 427.47 6.02464 218.392 168.634 218.392C254.552 218.392 219.157 161.028 277.568 94.6386C335.983 28.2509 565.838 -25.0284 609.316 103.173C652.793 231.372 575.386 306.622 679.219 289.924C803.99 269.861 776.398 427.47 776.398 427.47H88.5305Z" fill="#6FCF97"/>
<path d="M776.4 427.454H417.412H381.834H88.5232C88.091 426.351 67.6005 373.879 67.6005 321.782C67.5999 305.061 69.7095 288.383 75.2733 273.452H257.346C248.104 272.322 240.902 263.327 240.902 252.394H242.131C242.733 251.56 244.21 251.299 245.797 250.993C247.671 250.635 251.107 251.354 254.18 248.597C255.682 247.25 257.798 246.718 259.783 246.718C260.752 246.718 261.687 246.846 262.51 247.064C265.971 245.154 269.029 243.252 269.957 242.064C273.295 237.797 277.308 222.304 281.048 212.828H281.038C281.43 211.474 283.715 206.803 284.4 205.418C285.234 205.472 286.179 205.562 287.245 205.699C287.654 205.752 288.052 205.777 288.44 205.777C294.161 205.777 297.483 200.336 296.268 198.596C295.805 197.931 294.59 197.488 293.095 197.243C292.957 196.326 292.754 195.271 292.521 194.199L292.518 194.198V194.198C292.231 192.896 291.907 191.575 291.62 190.45C290.473 190.9 289.689 191.108 289.689 191.108C289.618 191.123 289.544 191.129 289.473 191.129C287.273 191.129 284.572 185.004 282.952 179.858C282.952 179.858 278.733 173.306 280.802 168.324C281.227 167.306 281.673 166.62 282.115 166.17C282.996 164.199 287.965 153.682 293.831 153.682C294.743 153.682 295.677 153.936 296.619 154.515C296.639 153.88 297.064 147.041 306.121 146.684C306.121 146.684 301.669 147.295 300.899 149.547C300.899 149.547 303.15 147.482 305.351 147.482C305.705 147.482 306.06 147.535 306.401 147.659C308.872 148.554 310.32 153.531 310.337 155.167C310.35 156.804 308.98 162.08 307.41 162.529C307.137 162.608 306.84 162.64 306.543 162.64C306.195 162.64 305.844 162.597 305.513 162.531C305.928 163.28 306.34 164.106 306.728 165.029C310.158 173.126 306.978 181.049 304.028 181.049C303.869 181.049 303.714 181.026 303.556 180.979C303.417 180.937 303.286 180.917 303.157 180.917C301.517 180.917 301.041 184.239 301.041 184.239L301.031 184.231C302.678 190.612 305.108 194.447 306.526 195.294C306.863 195.25 307.231 195.208 307.582 195.169L307.586 195.157L310.114 194.896L310.164 194.891L310.191 194.889C310.921 194.815 311.967 194.737 313.121 194.737C314.958 194.737 317.074 194.935 318.633 195.66C318.633 195.66 319.737 196.012 320.851 197.642C321.965 199.268 323.085 202.167 323.123 207.262L323.119 207.259V207.264C323.129 207.831 323.119 208.43 323.096 209.058C323.025 210.861 322.734 213.048 322.276 215.477C322.289 219.048 322.276 224.398 322.262 228.103C325.792 232.637 336.989 259.565 337.107 264.67C337.124 265.392 336.601 266.079 335.669 266.724C336.155 268.672 336.547 270.913 336.756 273.452H417.412H432.678C434.461 266.945 437.259 258.443 438.095 253.508C438.207 252.86 438.285 252.278 438.319 251.765C438.427 250.259 438.46 248.819 438.437 247.429C426.484 245.767 412.588 229.896 421.597 219.044C424.851 215.124 425.549 206.391 427.561 199.357C429.9 191.169 437.353 189.333 434.299 181.719C431.244 174.105 436.017 156.982 451.171 154.749C452.262 154.588 453.29 154.511 454.259 154.511C466.642 154.511 468.617 167.118 467.759 175.216C465.847 193.149 474.682 193.353 468.215 198.702C468.586 198.855 468.729 198.951 468.729 198.951C468.729 198.951 478.532 205.987 492.562 228.099C494.247 227.486 496.63 227.051 498.558 227.051C499.935 227.051 501.089 227.272 501.577 227.808C501.974 228.239 502.016 229.054 501.73 230.001C505.745 229.578 511.815 229.209 519.669 227.901C520.49 227.602 521.417 227.206 522.28 226.709C522.868 226.373 523.705 226.067 524.648 225.821L524.478 222.684H524.065L524.452 220.382H533.757L534.022 222.684H533.609L533.482 226.09L533.207 233.212L533.085 236.489H537.55C537.523 235.964 537.629 235.53 537.883 235.254C538.18 234.936 538.704 234.73 539.382 234.614L539.303 233.212L538.921 226.09L538.736 222.684H538.323L538.704 220.382H548.015L548.275 222.684H547.862L547.734 226.09L547.464 233.212L547.369 235.731C547.639 235.844 547.883 235.964 548.095 236.085C548.349 236.229 548.598 236.364 548.857 236.489H550.833C564.127 211.384 573.289 208.506 573.289 208.506C574.11 208.185 575.074 207.752 575.943 207.499C576.091 207.446 576.24 207.398 576.398 207.362L576.446 207.351C576.642 207.291 576.833 207.242 577.018 207.213L577.008 207.233C577.32 207.166 577.627 207.099 577.94 207.04C578.655 204.145 578.819 201.262 578.792 199.056C577.876 199.126 577.113 199.143 576.6 199.143C576.139 199.143 575.869 199.129 575.869 199.129C573.12 198.789 571.568 190.551 571.044 183.561C571.044 183.558 567.628 181.169 568.29 174.956C568.507 172.96 569.211 171.204 570.218 169.736H570.212C574.275 155.892 579.756 152.885 579.756 152.885L593.993 151.721C597.367 154.906 598.791 162.929 599.247 166.279C599.337 166.804 599.395 167.313 599.427 167.785C599.634 170.844 602.186 206.42 607.366 211.67L606.339 211.493C607.583 213.234 608.457 216.288 607.107 221.573C606.529 231.341 603.24 245.076 602.435 261.848C602.52 262.065 602.584 262.294 602.61 262.535L603.913 273.452H623.298C626.523 285.708 635.003 292.23 654.795 292.23C661.543 292.23 669.599 291.473 679.217 289.924C686.679 288.724 693.607 288.162 700.021 288.162C767.926 288.162 778.995 351.412 778.995 392.676C778.995 412.247 776.5 426.871 776.4 427.454V427.454ZM483.193 238.663C480.55 239.924 477.07 241.497 473.411 242.898C473.13 248.256 472.982 253.601 473.331 258.062C473.559 260.912 474.666 267.823 475.365 273.452H562.824C562.861 266.743 562.972 260.714 563.221 258.648L563.904 249.498C562.405 248.885 560.96 248.263 559.62 247.661C555.531 250.838 552.602 252.134 552.602 252.134C550.552 252.021 548.195 251.583 545.727 250.946C543.079 250.267 540.298 249.362 537.645 248.392C530.484 245.783 523.742 242.184 523.128 241.858C522.058 241.664 520.622 241.497 518.689 241.435C515.522 241.333 513.313 239.432 512.244 237.564C510.316 238.414 508.192 239.291 506.031 240.076C505.385 240.312 504.728 240.546 504.066 240.775C504.018 240.79 503.976 240.806 503.928 240.821C503.298 241.039 502.673 241.244 502.037 241.446C501.99 241.462 501.947 241.477 501.9 241.493C501.264 241.695 500.634 241.885 499.998 242.071C499.961 242.079 499.93 242.091 499.892 242.102C499.257 242.285 498.621 242.46 498.002 242.622L497.954 242.634C497.88 242.653 497.806 242.669 497.737 242.689C497.53 242.739 497.324 242.794 497.117 242.84C496.995 242.871 496.874 242.898 496.746 242.929C496.566 242.968 496.392 243.01 496.211 243.049C496.058 243.085 495.91 243.116 495.756 243.151C495.613 243.182 495.465 243.213 495.322 243.24C495.131 243.278 494.951 243.314 494.766 243.349C494.66 243.368 494.548 243.388 494.437 243.407C494.22 243.45 493.998 243.484 493.786 243.519C493.712 243.527 493.643 243.543 493.574 243.55C493.32 243.589 493.076 243.624 492.827 243.655C492.795 243.659 492.758 243.667 492.721 243.671C492.451 243.705 492.181 243.733 491.921 243.756L491.884 243.76C491.614 243.787 491.344 243.807 491.074 243.822C491.074 243.822 487.727 242.339 483.193 238.663V238.663ZM291.971 260.085C290.415 260.547 288.869 260.974 287.394 261.362C285.335 261.906 283.418 262.372 281.821 262.745C281.73 262.768 281.642 262.787 281.558 262.807L281.507 262.822C280.363 263.117 276.407 265.377 272.701 267.057C272.643 267.081 272.593 267.104 272.535 267.127C269.619 270.591 265.687 272.912 261.289 273.452H296.784C296.821 273.172 296.855 272.896 296.892 272.629C294.894 271.231 293.271 266.359 291.971 260.085V260.085ZM525.045 233.115L524.997 233.122C523.064 233.181 521.618 233.351 520.554 233.542C520.416 233.616 519.971 233.852 519.288 234.206C520.125 234.439 520.866 234.718 521.396 235.025C522.264 235.522 523.191 235.914 524.012 236.213C524.42 236.283 524.822 236.349 525.225 236.411L525.05 233.212L525.045 233.115V233.115ZM474.232 229.531C474.184 230.374 474.131 231.236 474.078 232.121C474.751 232.044 475.444 231.962 476.175 231.877C475.529 231.135 474.878 230.354 474.232 229.531ZM570.996 182.834C571.001 183.072 571.017 183.309 571.044 183.551C571.028 183.31 571.012 183.072 570.996 182.834Z" fill="#CBDFFA"/>
<path d="M228.776 423.571C229.024 426.976 233.388 426.678 238.295 426.007C243.203 425.332 241.87 427.025 248.748 427.075C255.627 427.124 257.978 424.577 258.304 423.483C258.596 422.514 255.277 421.725 251.728 420.795C251.281 420.68 250.833 420.558 250.386 420.436C246.383 419.342 242.923 416.936 240.277 413.169C237.294 408.921 234.567 389.586 234.567 389.586L223.82 391.816C223.82 391.816 230.075 408.387 230.717 413.821C231.005 416.261 229.444 417.889 229.078 420.025C228.882 421.184 228.688 422.373 228.776 423.571" fill="#B77446"/>
<path d="M238.338 426.358C240.28 425.865 241.934 427.029 248.785 427.075C255.638 427.121 257.98 424.751 258.304 423.733C258.595 422.831 255.289 422.097 251.753 421.231L251.712 421.299C251.712 421.299 247.319 423.789 241.673 423.247C237.072 422.803 232.366 420.848 229.191 420.515C228.996 421.593 228.802 422.7 228.891 423.814C229.138 426.983 232.534 427.838 238.338 426.358" fill="#365DA4"/>
<path d="M238.126 403.465C238.126 403.465 235.398 405.573 232.833 406.116C228.987 406.931 227.201 406.027 227.201 406.027C227.201 406.027 208.7 351.817 209.755 333.5C209.781 333.058 209.795 332.592 209.8 332.095C209.83 328.917 209.439 324.683 208.762 319.809C208.513 318.02 208.226 316.149 207.906 314.213C207.165 309.696 206.247 304.822 205.237 299.854C204.795 297.669 204.33 295.461 203.86 293.257C199.209 271.583 193.525 250.224 193.525 250.224C193.525 250.224 226.912 237.499 228.8 249.393C229.525 253.957 231.938 272.224 230.852 300.153C229.975 322.634 230.542 340.171 232.206 360.521C233.67 378.396 236.175 393.771 238.126 403.465" fill="#008905"/>
<path d="M209.703 332.414C209.735 329.196 209.334 324.91 208.641 319.975C208.386 318.163 208.092 316.27 207.765 314.309C207.006 309.735 206.066 304.801 205.033 299.771C204.58 297.559 204.105 295.323 203.623 293.092C204.298 286.397 204.842 281.803 204.842 281.803C204.842 281.803 219.032 304.046 209.703 332.414" fill="#285493"/>
<path d="M185.973 423.58C186.22 426.976 190.532 426.98 195.42 426.307C200.308 425.634 199.016 427.025 205.867 427.075C212.718 427.124 215.062 424.584 215.387 423.493C215.676 422.527 212.371 421.74 208.835 420.812C208.39 420.698 207.944 420.576 207.498 420.455C203.51 419.363 200.853 416.07 197.429 413.207C194.185 410.492 196.455 397.331 196.455 397.331L186.389 393.335C186.389 393.335 187.907 406.571 187.907 413.857C187.907 416.314 186.638 417.914 186.273 420.044C186.078 421.2 185.885 422.386 185.973 423.58" fill="#B77446"/>
<path d="M195.42 426.356C196.562 426.083 199.016 427.026 205.867 427.072C212.718 427.119 215.062 424.749 215.387 423.732C215.676 422.831 212.371 422.097 208.835 421.231L208.794 421.299C208.794 421.299 204.401 423.788 198.755 423.246C194.154 422.802 189.448 420.848 186.273 420.515C186.078 421.593 185.885 422.699 185.973 423.813C186.22 426.98 189.139 427.87 195.42 426.356" fill="#365DA4"/>
<path d="M213.721 246.245C213.721 246.245 202.734 309.381 200.878 343.744C199.022 378.106 196.705 406.554 196.705 406.554C196.705 406.554 194.308 407.55 191.557 407.372C188.652 407.178 186.35 406.147 186.35 406.147C186.35 406.147 175.46 354.448 179.067 333.753C182.674 313.058 179.669 293.973 177.938 276.807C175.455 252.195 185.007 240.754 191.675 232.954C198.424 225.062 213.721 246.245 213.721 246.245Z" fill="#008905"/>
<path d="M221.319 129.803C222.404 119.495 221.206 105.575 203.266 105.603C187.774 105.63 178.698 128.492 182.265 137.483C185.831 146.477 177.131 148.648 174.4 158.315C172.053 166.624 171.236 176.937 167.439 181.566C155.197 196.489 179.191 219.441 193.656 214.602C220.003 205.786 223.396 204.472 222.461 180.38C221.981 168.036 213.729 163.255 218.969 159.684C231.625 151.056 218.865 153.137 221.319 129.803" fill="#163560"/>
<path d="M217.388 156.598C217.115 156.598 214.963 155.846 211.351 155.454C209.589 149.393 210.544 143.049 210.544 143.049L197.18 138.406C196.536 154.625 195.26 156.648 194.992 156.896C192.226 157.648 189.268 158.694 186.142 160.148C186.142 160.148 194.674 215.862 191.009 226.492C187.344 237.127 185.951 246.564 185.951 246.564L225.711 247.126C225.711 247.126 225.155 210.63 226.987 197.713C228.819 184.796 217.388 156.598 217.388 156.598" fill="#A86337"/>
<path d="M212.168 146.841C212.168 146.841 195.913 146.798 196.092 135.086C196.272 123.37 194.295 115.475 204.681 115.009C215.068 114.539 217.015 119.052 217.777 122.979C218.539 126.905 216.401 146.551 212.168 146.841" fill="#B77446"/>
<path d="M248.567 211.137C250.972 211.004 253.383 210.348 256.639 210.086L256.431 196.168C253.844 196.203 251.869 195.008 251.317 194.106C233.921 165.707 222.318 157.94 222.318 157.94C222.318 157.94 221.005 157.034 215.869 156.214C215.869 156.214 215.131 167.012 210.351 167.929C202.083 169.511 195.421 160.72 193.476 157.178C193.476 157.178 183.982 159.963 181.195 163.649C179.193 166.297 179.455 172.639 180.048 176.626C180.237 177.888 180.459 178.919 180.652 179.516C181.24 181.32 183.463 194.559 184.477 199.831C184.501 199.964 184.524 200.089 184.546 200.202C184.617 200.554 184.678 200.862 184.734 201.124L184.739 201.143C184.798 201.425 184.848 201.643 184.888 201.788C184.911 201.87 184.934 201.96 184.959 202.046L184.963 202.061C186.428 207.482 187.31 213.008 186.791 219.783C186.729 220.58 186.572 221.541 186.338 222.622C185.015 230.495 179.518 246.019 178.377 253.146C179.035 254.755 180.525 256.028 182.339 257.043C184.704 258.367 187.612 259.25 189.927 259.867C191.719 260.347 194.476 260.882 197.655 261.296C199.341 261.515 201.147 261.702 202.987 261.823C203.246 261.843 203.503 261.862 203.763 261.874C215.628 262.558 228.914 262.218 230.645 255.669C231.475 252.529 228.167 233.635 227.726 228.019C226.955 218.159 228.212 204.654 228.779 194.196C238.517 206.654 248.567 211.137 248.567 211.137" fill="#80BDCC"/>
<path d="M205.864 112.659C205.864 112.659 207.594 116.511 202.511 123.043C197.428 129.576 197.18 141.218 197.18 141.218C197.18 141.218 188.613 122.288 193.184 116.241C197.754 110.199 205.864 112.659 205.864 112.659" fill="#163560"/>
<path d="M201.098 107.989C201.098 107.989 209.126 104.889 217.093 113.944C220.524 117.847 220.006 125.518 218.168 129.971C218.168 129.971 215.345 120.433 210.207 118.349C205.068 116.273 201.098 107.989 201.098 107.989Z" fill="#163560"/>
<path d="M207.831 139.856C207.831 139.856 208.015 141.144 211.097 141.217C211.097 141.217 213.684 141.28 213.721 139.887C213.721 139.887 211.309 138.684 207.831 139.856" fill="white"/>
<path d="M212.527 240.199C210.256 249.02 208.937 256.277 203.235 261.184C201.377 261.063 199.552 260.877 197.849 260.659C194.639 260.246 191.854 259.713 190.044 259.235C187.705 258.62 184.767 257.74 182.379 256.421C180.547 255.409 179.042 254.141 178.377 252.538C179.53 245.436 185.082 229.969 186.418 222.124C186.549 221.357 186.64 220.668 186.683 220.065C187.178 213.038 186.383 207.267 185.029 201.636L185.025 201.621C184.951 201.317 184.878 201.022 184.803 200.722L184.799 200.699C184.751 200.508 184.687 200.193 184.608 199.784C184.587 199.671 184.563 199.547 184.539 199.415C183.624 194.438 180.891 179.157 180.281 177.122C180.088 176.476 180.211 175.036 180.023 173.674L184.813 168.397C184.813 168.397 212.296 181.838 218.35 200.376C224.405 218.914 215.787 227.548 212.527 240.199" fill="#5F9AA8"/>
<path d="M266.738 206.239C260.714 208.404 254.161 210.303 249.17 210.573C249.17 210.573 238.986 206.144 229.19 193.798C228.776 191.698 228.378 188.18 230.62 189.198C233.766 190.619 245.398 207.547 249.8 207.901C252.95 208.153 261.908 206.948 266.738 206.239Z" fill="#5F9AA8"/>
<path d="M295.942 198.974C294.653 197.128 287.533 197.005 284.722 198.087C283.647 198.504 282.509 198.789 281.515 198.981C275.463 199.012 270.422 198.38 266.365 197.748C262.039 197.074 258.835 196.4 256.712 196.531C255.527 199.239 253.723 204.07 254.19 210.573C257.364 210.28 261.065 209.695 264.286 209.067C272.994 207.38 281.034 205.931 281.753 205.677C283.019 205.654 284.719 205.731 286.965 206.02C293.377 206.848 297.235 200.815 295.942 198.974Z" fill="#A86337"/>
<path d="M239.212 195.125C239.481 195.924 240.691 196.356 241.287 196.524C241.049 195.893 240.899 195.207 240.858 194.486C240.49 193.906 239.909 193.569 239.483 193.655C239.102 193.737 238.872 194.109 239.212 195.125V195.125ZM238.65 192.898C239.153 192.538 240.134 192.679 240.845 192.851V191.664C240.845 191.401 240.861 191.146 240.889 190.891H251.547C251.574 191.146 251.59 191.401 251.59 191.664V194.074C251.59 197.477 249.173 200.264 246.217 200.264C244.617 200.264 243.175 199.444 242.189 198.155L242.19 198.159C242.19 198.159 239.654 197.437 238.858 196.348C238.062 195.262 237.804 193.498 238.65 192.898" fill="#82B378"/>
<path d="M250.749 191.664V194.074C250.749 197.477 248.412 200.264 245.556 200.264C245.32 200.264 245.086 200.244 244.858 200.205C247.387 199.797 249.353 197.194 249.353 194.074V191.664C249.353 191.405 249.338 191.142 249.31 190.891H250.707C250.734 191.142 250.749 191.405 250.749 191.664Z" fill="#ACD1A3"/>
<path d="M265.3 195.125C265.569 195.924 266.777 196.356 267.373 196.524C267.134 195.889 266.985 195.203 266.944 194.486C266.576 193.906 265.994 193.565 265.569 193.655C265.188 193.733 264.96 194.109 265.3 195.125ZM264.735 192.894C265.239 192.538 266.222 192.679 266.93 192.847V191.664C266.93 191.401 266.947 191.142 266.974 190.891H277.633C277.661 191.142 277.678 191.401 277.678 191.664V194.074C277.678 197.477 275.258 200.264 272.304 200.264C270.704 200.264 269.261 199.444 268.275 198.155H268.278C268.278 198.155 265.739 197.437 264.946 196.348C264.15 195.258 263.891 193.498 264.735 192.894" fill="#82B378"/>
<path d="M276.836 191.664V194.074C276.836 197.477 274.499 200.264 271.643 200.264C271.406 200.264 271.172 200.244 270.945 200.205C273.476 199.797 275.441 197.194 275.441 194.074V191.664C275.441 191.401 275.427 191.142 275.398 190.891H276.797C276.823 191.142 276.836 191.401 276.836 191.664" fill="#ACD1A3"/>
<path d="M252.432 186.84L252.492 188.306L252.536 189.384L252.812 196.247L252.837 196.832L252.976 200.264H261.729L261.926 196.832L261.96 196.247L262.357 189.384L262.42 188.306L262.53 186.359L262.506 186.299C262.506 186.299 260.465 185.9 259.24 186.743C258.58 187.198 257.886 186.926 257.213 186.658C256.64 186.43 256.08 186.199 255.566 186.419C254.45 186.9 254.375 187.504 253.487 187.105C253.221 186.982 252.839 186.9 252.432 186.84" fill="#E37970"/>
<path d="M261.927 196.515L261.933 196.387L262.328 189.067L262.389 187.917L262.499 185.841L262.475 185.777C262.475 185.777 261.995 185.678 261.361 185.678C260.692 185.678 259.856 185.789 259.232 186.25C258.978 186.437 258.717 186.509 258.453 186.509C258.042 186.509 257.627 186.334 257.219 186.159C256.814 185.984 256.413 185.809 256.033 185.809C255.878 185.809 255.731 185.837 255.583 185.904C254.73 186.302 254.49 186.776 254.02 186.776C253.879 186.776 253.722 186.732 253.519 186.636C253.255 186.505 252.876 186.418 252.471 186.354L252.531 187.917L252.575 189.067L252.801 195.094L252.575 189.067L252.531 187.917L252.471 186.354L252.432 185.268H262.53L262.499 185.841L262.389 187.917L262.328 189.067L261.933 196.387L261.927 196.515" fill="#E8DBE2"/>
<path d="M261.729 200.264H252.976L252.837 196.832L252.812 196.246L252.764 195.034L252.536 189.383L252.492 188.305L252.432 186.839C252.839 186.899 253.221 186.981 253.487 187.104C253.691 187.194 253.85 187.235 253.991 187.235C254.464 187.235 254.706 186.791 255.566 186.418C255.714 186.354 255.863 186.328 256.018 186.328C256.401 186.328 256.805 186.492 257.213 186.656C257.624 186.821 258.041 186.985 258.456 186.985C258.722 186.985 258.984 186.918 259.24 186.742C259.868 186.31 260.71 186.205 261.384 186.205C262.022 186.205 262.506 186.298 262.506 186.298L262.53 186.358L262.42 188.305L262.357 189.383L261.96 196.246L261.953 196.366L261.926 196.832L261.729 200.264" fill="#E37970"/>
<path d="M262.527 185.268H252.436C252.434 185.212 252.432 185.157 252.432 185.101C252.432 182.086 254.693 179.644 257.482 179.644C260.268 179.644 262.53 182.086 262.53 185.101C262.53 185.157 262.527 185.212 262.527 185.268" fill="#E8DBE2"/>
<path d="M258.702 199.326L259.164 199.265C259.135 198.953 257.659 177.921 257.426 176.518C257.176 174.976 255.785 174.517 255.724 174.498L255.699 174.494L248.305 173.084L248.224 173.573L255.606 174.98C255.732 175.022 256.778 175.419 256.971 176.603C257.201 177.986 258.695 199.253 258.702 199.326Z" fill="#80BDCC"/>
<path d="M252.432 188.08L252.477 189.225L252.758 196.515H262.063L262.467 189.225L262.53 188.08H252.432Z" fill="#163560"/>
<path d="M287.776 195.421C287.75 195.324 287.776 193.598 285.458 192.975C283.139 192.347 283.834 190.891 283.834 190.891C283.834 190.891 280.462 192.963 281.132 195.421C281.801 197.882 287.776 195.421 287.776 195.421" fill="#DDE3F2"/>
<path d="M281.248 200.264H288.258L289.459 194.64H280.202L281.248 200.264Z" fill="#E37970"/>
<path d="M298.039 204.013H237.962C237.123 204.013 236.443 203.171 236.443 202.136C236.443 201.101 237.123 200.264 237.962 200.264H298.039C298.878 200.264 299.557 201.101 299.557 202.136C299.557 203.171 298.878 204.013 298.039 204.013Z" fill="#2B478B"/>
<path d="M199.149 179.644H228.291C228.291 179.644 238.364 282.222 233.37 319.293H183.426C183.426 319.293 200.57 206.37 199.149 179.644" fill="#EE9849"/>
<path d="M218.351 200.66C215.649 192.391 208.678 185.141 201.788 179.644H199.247C199.959 193.06 195.993 228.23 191.871 259.889L189.317 278.992C195.017 274.086 210.26 249.257 212.529 240.444C215.789 227.806 224.404 219.18 218.351 200.66" fill="#E58638"/>
<path d="M241.26 210.514C241.26 210.514 227.011 216.225 215.063 217.642C211.626 218.05 208.341 218.21 205.587 217.932C205.587 217.932 193.652 211.549 185.938 194.618C171.036 161.912 185.573 160.9 185.573 160.9C185.573 160.9 196.806 171.688 210.854 202.66C211.345 203.742 212.892 203.754 216.938 203.444C221.258 203.115 229.618 204.535 241.403 204.362C241.403 204.362 241.54 204.892 241.474 206.504C241.328 210.058 241.26 210.514 241.26 210.514" fill="#80BDCC"/>
<path d="M258.893 203.714C257.494 201.823 249.846 201.749 246.836 202.882C245.075 203.547 243.159 203.896 241.869 204.074V204.055C230.082 204.215 221.6 203.379 217.279 203.691C218.215 207.008 218.619 211.986 215.404 217.134C226.841 215.849 240.619 211.239 241.777 210.849C243.118 210.678 245.472 210.585 249.288 211.031C256.176 211.837 260.288 205.604 258.893 203.714" fill="#B77446"/>
<path d="M187.068 219.948L197.732 220.609L197.212 224.632L186.874 223.288C186.325 223.218 185.92 222.618 185.953 221.927L185.99 221.152C186.024 220.448 186.505 219.909 187.068 219.948" fill="#E58638"/>
<path d="M191.086 158.211C191.086 158.211 189.638 157.587 188.475 159.151C188.475 159.151 197.681 173.461 199.613 179.644L202.781 179.359C202.781 179.359 195.389 163.123 191.086 158.211" fill="#EE9849"/>
<path d="M201.94 179.419C200.809 178.507 199.68 177.644 198.574 176.833C199.012 177.876 199.37 178.834 199.606 179.644L201.94 179.419Z" fill="#E58638"/>
<path d="M214.563 156.436C214.563 156.436 221.196 165.779 224.911 180.582L228.027 179.813C228.027 179.813 224.454 166.852 216.794 156.705C216.794 156.705 215.475 155.809 214.563 156.436Z" fill="#EE9849"/>
<path d="M596.973 350.44H596.994C597.68 350.429 598.233 349.85 598.221 349.147C597.517 299.151 614.33 260.705 614.501 260.324C614.784 259.684 614.729 258.255 612.919 258.073C611.336 257.914 610.354 258.313 610.071 258.95C610.024 259.047 606.275 268.197 602.111 284.1C598.272 298.759 595.356 322.767 595.729 349.186C595.737 349.881 596.295 350.44 596.973 350.44" fill="#EE9849"/>
<path d="M559.484 350.441H559.5C560.186 350.43 560.742 349.851 560.73 349.148C560.028 299.152 576.84 260.706 577.01 260.326C577.294 259.685 577.241 258.257 575.427 258.074C573.844 257.915 572.862 258.315 572.578 258.951C572.533 259.049 568.787 268.199 564.618 284.101C560.778 298.76 557.864 322.768 558.238 349.187C558.246 349.882 558.802 350.441 559.484 350.441" fill="#EE9849"/>
<path d="M608.07 275.68C608.67 275.68 609.193 275.242 609.3 274.621C609.415 273.929 608.959 273.273 608.282 273.153C607.201 272.967 581.704 268.587 570.289 272.241C569.634 272.45 569.272 273.165 569.476 273.836C569.681 274.504 570.383 274.877 571.038 274.667C581.878 271.196 607.602 275.614 607.857 275.661C607.929 275.673 608.002 275.68 608.07 275.68" fill="#EE9849"/>
<path d="M605.161 284.1C605.754 284.1 606.284 283.661 606.386 283.04C606.504 282.349 606.046 281.693 605.368 281.572C604.288 281.386 578.791 277.007 567.378 280.66C566.721 280.869 566.356 281.584 566.564 282.256C566.771 282.923 567.471 283.3 568.128 283.086C578.969 279.616 604.69 284.034 604.949 284.08C605.021 284.092 605.089 284.1 605.161 284.1" fill="#EE9849"/>
<path d="M598.473 350.441H521.644C521.644 350.441 523.431 341.903 567.927 343.173C599.412 344.073 598.473 350.441 598.473 350.441Z" fill="#EE9849"/>
<path d="M604.721 427.104C595.815 381.503 598.106 353.515 598.114 353.166C598.14 352.463 596.859 351.826 596.17 351.803C595.477 351.791 592.399 351.593 592.044 352.195C591.579 352.983 589.787 387.462 603.06 427.104H604.721" fill="#E58638"/>
<path d="M539.501 427.105C548.408 381.503 546.12 353.516 546.104 353.167C546.085 352.464 547.366 351.827 548.052 351.804C548.749 351.792 551.822 351.594 552.178 352.196C552.645 352.984 554.439 387.463 541.163 427.105H539.501Z" fill="#E58638"/>
<path d="M518.775 427.104C527.681 381.502 525.395 353.515 525.38 353.166C525.361 352.463 526.639 351.826 527.329 351.803C528.023 351.791 531.098 351.593 531.454 352.195C531.92 352.983 533.714 387.462 520.439 427.104H518.775Z" fill="#CE6D25"/>
<path d="M582.169 427.105C573.259 381.503 575.549 353.516 575.562 353.166C575.582 352.464 574.306 351.827 573.615 351.804C572.92 351.792 569.845 351.594 569.49 352.196C569.023 352.984 567.228 387.463 580.505 427.105H582.169" fill="#CE6D25"/>
<path d="M521.208 353.165H598.817C599.467 353.165 600.001 352.552 600.001 351.803C600.001 351.053 599.467 350.44 598.817 350.44H521.208C520.557 350.44 520.024 351.053 520.024 351.803C520.024 352.552 520.557 353.165 521.208 353.165Z" fill="#E58638"/>
<path d="M299.932 351.159H299.915C299.211 351.151 298.648 350.57 298.659 349.865C299.373 299.655 282.191 261.051 282.018 260.669C281.725 260.026 281.78 258.591 283.633 258.408C285.251 258.248 286.255 258.646 286.548 259.289C286.59 259.386 290.423 268.575 294.68 284.544C298.607 299.265 301.584 323.374 301.208 349.9C301.198 350.602 300.629 351.159 299.932 351.159" fill="#EE9849"/>
<path d="M337.019 351.159H336.999C336.326 351.151 335.788 350.57 335.798 349.865C336.481 299.655 320.044 261.051 319.879 260.669C319.602 260.026 319.655 258.591 321.424 258.408C322.975 258.248 323.936 258.646 324.213 259.289C324.256 259.386 327.919 268.575 331.992 284.544C335.748 299.265 338.597 323.374 338.237 349.9C338.227 350.602 337.683 351.159 337.019 351.159" fill="#EE9849"/>
<path d="M289.011 276.18C288.419 276.18 287.897 275.763 287.793 275.167C287.68 274.504 288.131 273.875 288.804 273.76C289.875 273.581 315.148 269.381 326.461 272.884C327.114 273.086 327.475 273.771 327.271 274.411C327.067 275.055 326.371 275.413 325.722 275.212C314.977 271.883 289.477 276.12 289.219 276.165C289.149 276.176 289.078 276.18 289.011 276.18" fill="#EE9849"/>
<path d="M291.536 284.615C290.944 284.615 290.422 284.195 290.318 283.599C290.204 282.937 290.656 282.308 291.329 282.193C292.399 282.014 317.673 277.817 328.986 281.319C329.638 281.52 330 282.204 329.795 282.844C329.591 283.488 328.899 283.845 328.246 283.644C317.499 280.318 292.001 284.552 291.747 284.597C291.677 284.608 291.606 284.615 291.536 284.615" fill="#EE9849"/>
<path d="M297.877 351.159H375.295C375.295 351.159 373.492 342.505 328.656 343.792C296.925 344.705 297.877 351.159 297.877 351.159Z" fill="#EE9849"/>
<path d="M291.984 427.075C301.193 381.691 298.823 353.843 298.813 353.491C298.792 352.796 300.115 352.158 300.827 352.135C301.545 352.123 304.725 351.93 305.091 352.529C305.573 353.313 307.429 387.625 293.704 427.075H291.984" fill="#E58638"/>
<path d="M357.623 427.075C348.413 381.691 350.783 353.843 350.793 353.491C350.818 352.796 349.495 352.158 348.783 352.135C348.061 352.123 344.881 351.93 344.515 352.529C344.033 353.313 342.18 387.625 355.906 427.075H357.623" fill="#E58638"/>
<path d="M377.82 427.075C369.186 381.691 371.407 353.843 371.417 353.491C371.44 352.796 370.2 352.158 369.533 352.135C368.855 352.123 365.875 351.93 365.531 352.529C365.08 353.313 363.339 387.625 376.21 427.075H377.82" fill="#CE6D25"/>
<path d="M314.705 427.075C323.339 381.691 321.117 353.843 321.107 353.491C321.084 352.796 322.328 352.158 322.995 352.135C323.669 352.123 326.65 351.93 326.993 352.529C327.445 353.313 329.185 387.625 316.318 427.075H314.705" fill="#CE6D25"/>
<path d="M375.794 353.971H298.217C297.566 353.971 297.033 353.341 297.033 352.563C297.033 351.793 297.566 351.159 298.217 351.159H375.794C376.445 351.159 376.978 351.793 376.978 352.563C376.978 353.341 376.445 353.971 375.794 353.971Z" fill="#E58638"/>
<path d="M501.869 287.182C501.869 287.182 497.377 283.963 495.432 284.452C493.48 284.938 488.142 286.692 487.975 289.228C487.805 291.759 495.599 295.758 501.361 293.514C507.123 291.273 501.869 287.182 501.869 287.182" fill="#B77446"/>
<path d="M525.681 421.996C525.677 423.129 525.191 423.913 524.364 424.434L524.352 424.441C522.825 425.408 520.385 424.667 517.47 424.519C517.092 424.503 516.516 425.331 516.217 425.331C516.134 425.331 516.056 425.331 515.981 425.334C515.917 425.334 515.857 425.334 515.801 425.334C512.912 425.416 513.219 426.414 507.729 426.953C501.476 427.567 499.17 425.366 498.8 424.364C498.493 423.51 501.176 422.547 504.178 421.444C504.316 421.39 504.462 421.335 504.612 421.285C505.008 421.137 505.413 420.986 505.809 420.835C509.379 419.472 512.897 417.853 513.777 413.695C514.705 409.285 511.909 396.978 511.909 396.978L521.823 395.747C521.823 395.747 522.777 408.613 523.402 412.62C523.735 414.763 524.581 416.463 525.075 418.296C525.112 418.424 525.146 418.552 525.176 418.68C525.426 419.759 525.681 420.858 525.681 421.996" fill="#D38957"/>
<path d="M498.8 424.36C498.998 424.896 499.41 426.464 502.037 427.104H511.988C512.018 427.085 512.048 427.07 512.078 427.058C515.356 425.381 517.975 425.187 520.041 425.152C521.145 425.128 522.085 425.156 522.889 425.016C523.372 424.938 523.802 424.795 524.184 424.554C524.244 424.519 524.296 424.484 524.352 424.441L524.364 424.434C524.416 424.407 524.461 424.372 524.51 424.336H524.513L524.517 424.333C524.607 424.271 524.689 424.201 524.768 424.131C524.813 424.092 524.854 424.057 524.891 424.018C524.929 423.98 524.97 423.941 525.007 423.902L525.082 423.809C525.127 423.754 525.172 423.692 525.217 423.634L525.221 423.622C525.247 423.587 525.269 423.548 525.292 423.513C525.318 423.471 525.34 423.432 525.359 423.389L525.366 423.378L525.374 423.362C525.393 423.327 525.411 423.292 525.423 423.257L525.426 423.253L525.456 423.18C525.475 423.141 525.49 423.102 525.501 423.067C525.524 423.017 525.542 422.963 525.557 422.904C525.569 422.861 525.584 422.819 525.591 422.772C525.606 422.714 525.617 422.659 525.628 422.598C525.636 422.551 525.643 422.5 525.647 422.45L525.662 422.353C525.666 422.306 525.67 422.256 525.673 422.205C525.677 422.135 525.681 422.066 525.681 421.996V421.98C525.681 421.918 525.681 421.86 525.677 421.802C525.677 421.739 525.673 421.681 525.67 421.619C525.666 421.561 525.666 421.499 525.662 421.433C525.658 421.374 525.655 421.312 525.647 421.25C525.64 421.157 525.628 421.068 525.621 420.983L525.613 420.928C525.606 420.874 525.599 420.816 525.591 420.761C525.584 420.68 525.565 420.594 525.557 420.509C525.531 420.365 525.509 420.222 525.483 420.078C525.468 420.016 525.456 419.957 525.445 419.899C525.419 419.759 525.389 419.624 525.359 419.492C525.348 419.422 525.329 419.352 525.318 419.286C525.284 419.15 525.25 419.018 525.221 418.882C525.206 418.816 525.191 418.75 525.176 418.684C525.146 418.552 525.112 418.424 525.075 418.296C522.092 419.092 517.949 421.483 513.773 422.384C513.709 422.4 513.646 422.411 513.582 422.423C511.344 422.885 509.278 422.76 507.643 422.469C505.869 422.155 504.604 421.639 504.174 421.444C501.176 422.547 498.493 423.513 498.8 424.36" fill="#2F5791"/>
<path d="M520.045 427.104V426.258V425.609V425.151V424.813L520.228 424.778L524.685 423.971L524.52 424.332L524.517 424.336H524.513L524.405 424.569L524.076 425.279H524.072L523.228 427.104H520.045" fill="#2F5791"/>
<path d="M576.9 312.333L544.805 308.816C544.805 308.816 495.69 309.072 491.111 316.53C491.111 316.53 482.343 323.522 492.257 352.421C502.171 381.317 513.812 410.202 513.812 410.202C513.812 410.202 516.778 411.133 520.845 410.772C522.449 410.628 524.617 409.995 524.617 409.995C524.617 409.995 522.379 366.871 517.42 350.088C512.465 333.309 510.939 336.574 519.708 337.506C528.48 338.437 556.692 345.895 569.654 344.032C582.62 342.165 576.9 312.333 576.9 312.333Z" fill="#1C5F1F"/>
<path d="M531.867 421.995C531.863 423.128 531.379 423.913 530.555 424.433L530.54 424.441C529.013 425.408 526.574 424.666 523.656 424.518C523.282 424.503 522.703 425.33 522.401 425.33C522.325 425.33 522.246 425.33 522.17 425.334C522.11 425.334 522.049 425.334 521.989 425.334C519.101 425.415 519.403 426.413 513.922 426.952C507.662 427.566 505.356 425.365 504.989 424.363C504.679 423.509 507.363 422.546 510.361 421.444C510.508 421.389 510.652 421.335 510.799 421.284C511.2 421.137 511.601 420.985 511.998 420.834C515.57 419.471 519.089 417.852 519.963 413.695C520.893 409.284 518.099 396.977 518.099 396.977L528.011 395.747C528.011 395.747 528.967 408.612 529.587 412.619C529.927 414.762 530.771 416.463 531.262 418.295C531.296 418.423 531.33 418.551 531.36 418.679C531.613 419.759 531.871 420.857 531.867 421.995" fill="#E49963"/>
<path d="M581.386 314.957L551.29 312.034C551.29 312.034 502.17 312.278 497.593 319.504C497.593 319.504 490.175 324.85 500.084 352.837C509.997 380.828 520.039 411.626 520.039 411.626C520.039 411.626 522.265 411.976 524.954 411.727C528.341 411.413 529.469 410.147 529.469 410.147C529.469 410.147 528.771 371.848 523.81 355.597C518.857 339.346 516.949 341 525.718 341.904C534.487 342.805 559.143 349.878 576.136 346.136C588.97 343.309 581.386 314.957 581.386 314.957Z" fill="#008905"/>
<path d="M504.966 424.223C504.966 424.27 504.97 424.316 504.989 424.359C505.171 424.86 505.541 426.246 507.696 426.952C507.862 427.011 508.036 427.057 508.221 427.104H518.175C518.825 426.766 519.445 426.487 520.042 426.258C521.539 425.687 522.877 425.411 524.072 425.279H524.076C524.854 425.19 525.569 425.163 526.23 425.151C528.094 425.116 529.504 425.205 530.54 424.441L530.551 424.433C530.6 424.406 530.653 424.371 530.699 424.336H530.702V424.332C530.793 424.266 530.88 424.2 530.96 424.13C531.001 424.091 531.039 424.056 531.08 424.018C531.122 423.979 531.156 423.94 531.194 423.901L531.269 423.808L531.349 423.711C531.375 423.672 531.398 423.637 531.417 423.602L531.462 423.54C531.485 423.501 531.508 423.462 531.53 423.424C531.549 423.388 531.568 423.35 531.583 423.311C531.614 423.253 531.64 423.191 531.666 423.128L531.67 423.117C531.689 423.074 531.7 423.035 531.716 422.992L531.742 422.899L531.75 422.884L531.753 422.868L531.757 422.857C531.765 422.818 531.776 422.775 531.787 422.736C531.799 422.694 531.806 422.647 531.818 422.597C531.825 422.55 531.833 422.499 531.837 422.449L531.852 422.356V422.352C531.855 422.305 531.855 422.255 531.859 422.204C531.867 422.134 531.867 422.064 531.867 421.995C531.871 420.861 531.617 419.759 531.36 418.683C531.33 418.551 531.296 418.423 531.262 418.295C529.644 418.73 527.682 419.63 525.558 420.508C523.769 421.249 521.864 421.971 519.959 422.383C517.536 422.911 515.305 422.752 513.585 422.422C511.941 422.104 510.769 421.63 510.361 421.444C509.393 421.801 508.459 422.142 507.647 422.468C507.492 422.531 507.337 422.597 507.193 422.659C507.053 422.717 506.917 422.775 506.789 422.834C506.66 422.891 506.535 422.95 506.418 423.008C506.358 423.035 506.297 423.062 506.24 423.094C506.187 423.121 506.135 423.148 506.074 423.179C505.972 423.233 505.87 423.291 505.779 423.346C505.73 423.373 505.688 423.4 505.643 423.428C505.56 423.486 505.477 423.54 505.409 423.595C505.352 423.637 505.299 423.68 505.254 423.718C505.224 423.754 505.189 423.785 505.163 423.816L505.118 423.866C505.057 423.94 505.012 424.014 504.989 424.088L504.97 424.146V424.149L504.966 424.223" fill="#365DA4"/>
<path d="M526.231 424.813V427.104H529.412L530.699 424.335H530.703V424.332L530.869 423.971L526.412 424.778L526.231 424.813" fill="#365DA4"/>
<path d="M499.678 293.858C499.725 294.181 499.805 294.492 499.92 294.783C501.19 297.997 527.625 302.089 530.931 300.043C532.408 299.127 534.556 283.796 536.477 267.125C538.851 246.51 540.888 223.847 540.888 223.847C540.888 223.847 529.914 227.828 528.641 234.552C527.371 241.277 527.114 282.794 523.812 284.84C520.506 286.886 506.529 285.131 501.7 286.009C501.7 286.009 499.172 290.609 499.678 293.858" fill="#A8D29F"/>
<path d="M540.166 176.072C542.217 174.174 545.201 174.411 547.121 174.541C546.627 173.954 545.655 173.74 545.655 173.74C546.846 173.537 549.503 174.896 549.503 174.896C549.503 174.896 559.57 168.968 564.231 184.17C564.231 184.17 563.426 183.022 562.323 181.719C565.02 190.464 562.295 203.696 553.806 206.049C548.292 207.579 519.112 195.524 540.166 176.072" fill="#163560"/>
<path d="M540.098 227.197C540.043 227.225 545.419 230.435 549.464 229.162C553.269 227.97 555.754 222.297 555.699 222.284C554.089 221.916 553.626 219.37 553.661 208.428L552.931 208.592L540.687 211.382C540.687 211.382 540.962 215.815 540.974 219.991C540.982 223.497 540.793 226.82 540.098 227.197" fill="#A86337"/>
<path d="M554.195 207.059C554.195 207.059 557.788 200.533 558.649 194.952C559.265 190.968 557.5 176.2 544.597 178.326C544.597 178.326 540.854 178.752 537.328 181.489C534.524 183.664 530.481 188.363 535.006 201.249L536.175 205.603L554.195 207.059" fill="#163560"/>
<path d="M538.399 215.336C538.399 215.336 554.61 215.643 554.626 204.027C554.634 192.411 556.734 184.627 546.383 183.94C536.028 183.252 534.014 187.682 533.192 191.558C532.366 195.434 534.179 214.956 538.399 215.336Z" fill="#B77446"/>
<path d="M539 183.655C539 183.655 543.44 197.283 550.251 199.298C557.062 201.312 560.018 199.213 560.018 199.213C560.018 199.213 558.137 193.445 557.054 185.111C557.054 185.111 542.349 177.169 539 183.655" fill="#163560"/>
<path d="M534.43 241.053C534.715 239.73 532.288 238.736 531.696 239.916C530.579 242.125 530.359 244.909 529.915 247.125C528.642 253.461 529.915 262.134 529.915 262.134L534.43 241.053Z" fill="#82B378"/>
<path d="M540.101 184.761C540.101 184.761 536.784 187.803 535.976 190.761C535.167 193.719 534.803 199.808 533.263 199.601C533.263 199.601 529.919 190.339 533.673 185.098C537.661 179.542 540.101 184.761 540.101 184.761Z" fill="#163560"/>
<path d="M542.005 208.293C542.005 208.293 541.701 209.768 538.508 209.541C538.508 209.541 535.826 209.35 535.911 207.729C535.911 207.729 538.512 206.574 542.005 208.293Z" fill="white"/>
<path d="M499.677 293.859C499.723 294.181 499.807 294.492 499.921 294.783C501.19 297.997 527.626 302.089 530.932 300.043C532.41 299.127 535.001 280.065 533.136 263.01C531.141 272.762 530.529 292.768 525.852 293.707C520.54 294.779 506.611 292.737 499.677 293.859Z" fill="#82B378"/>
<path d="M528.926 262.914C535.495 299.349 529.998 304.939 533.412 308.523L536.461 310.056C540.019 313.608 540.109 309.307 551.292 314.882C556.621 317.538 563.453 321.059 569.414 323.14C571.666 323.92 573.785 324.502 575.663 324.755C579.254 325.24 581.941 324.522 582.812 321.73C585.355 313.617 573.153 292.069 576.205 277.363C576.23 277.239 576.255 277.111 576.279 276.987C576.497 275.698 576.538 274.223 576.427 272.604C575.856 264.4 571.349 252.478 566.686 242.295C561.53 231.067 556.185 221.955 555.7 222.283C542.114 231.56 540.886 223.847 540.886 223.847C540.886 223.847 526.683 250.486 528.926 262.914" fill="#A8D29F"/>
<path d="M535.38 309.548C538.938 313.096 540.109 309.307 551.292 314.882C556.621 317.538 563.453 321.059 569.414 323.14C572.463 323.753 574.735 324.289 575.663 324.755C579.254 325.24 581.941 324.522 582.812 321.73C585.355 313.617 573.153 292.07 576.205 277.363C576.23 277.24 576.255 277.111 576.279 276.987C576.538 275.531 576.575 274.083 576.427 272.604C575.782 266.369 571.797 259.606 567.282 249.757C564.262 253.425 541.584 249.17 546.945 285.427C548.589 296.538 536.794 300.921 535.38 309.548Z" fill="#82B378"/>
<path d="M536.482 311.4C536.482 311.4 531.484 310.033 529.195 311.105C526.907 312.176 522.33 314.906 522.752 316.369C523.178 317.829 528.601 318.609 530.89 317.146C533.178 315.686 534.872 317.538 537.666 316.466C540.464 315.394 536.482 311.4 536.482 311.4" fill="#B77446"/>
<path d="M555.702 222.284C555.702 222.284 574.14 222.567 577.445 232.799C580.75 243.033 579.734 278.994 574.903 289.811C570.072 300.631 542.621 315.247 539.569 315.834C536.521 316.416 534.616 311.008 534.742 310.422C534.869 309.839 563.593 283.086 563.462 280.311C563.34 277.531 555.702 222.284 555.702 222.284" fill="#A8D29F"/>
<path d="M416.579 264.648C416.579 264.648 421.331 258.19 422.352 257.426C423.373 256.666 427.859 255.325 428.118 255.596C428.373 255.864 428.386 256.257 427.828 256.807C427.273 257.357 425.153 258.747 425.456 258.904C425.759 259.061 432.158 255.482 433.08 256.685C434.002 257.888 432.559 262.853 430.092 265.232C427.624 267.612 420.262 268.628 419.799 268.96C415.875 271.779 416.579 264.648 416.579 264.648Z" fill="#ED975D"/>
<path d="M371.929 422.253C371.932 423.341 372.423 424.09 373.253 424.59L373.267 424.598C374.809 425.524 377.511 425.616 380.456 425.478C380.833 425.462 381.17 425.451 381.473 425.451C381.552 425.451 381.633 425.451 381.708 425.451C381.77 425.451 381.831 425.455 381.892 425.455C384.802 425.532 384.496 426.485 390.031 427.003C396.338 427.595 397.604 424.371 397.979 423.41C398.292 422.591 396.641 422.78 393.615 421.723C393.469 421.673 393.533 421.246 393.387 421.196C392.982 421.054 392.577 420.908 392.175 420.766C388.574 419.455 384.819 418.279 383.934 414.29C382.995 410.062 385.817 398.264 385.817 398.264L375.82 397.084C375.82 397.084 374.853 409.417 374.227 413.26C373.89 415.312 373.039 416.946 372.538 418.702C372.504 418.829 372.47 418.952 372.44 419.075C372.184 420.105 371.926 421.162 371.929 422.253" fill="#E49963"/>
<path d="M371.949 423.134C372.033 424.206 372.569 424.898 373.428 425.317L373.441 425.32C375.118 425.986 377.752 425.861 380.585 425.503C380.955 425.457 381.288 425.423 381.592 425.4C381.672 425.393 381.75 425.385 381.827 425.381C381.888 425.374 381.949 425.37 382.006 425.366C384.882 425.172 384.65 426.142 390.143 426.138C396.407 426.131 398.546 423.833 398.842 422.852C399.091 422.015 396.353 421.358 393.295 420.597C392.483 421.027 388.607 422.921 383.814 422.384C379.601 421.924 375.314 420.053 372.293 419.578C372.266 419.703 372.242 419.829 372.222 419.95C372.044 420.992 371.868 422.061 371.949 423.134" fill="#C65447"/>
<path d="M436.412 408.785C436.972 411.935 440.967 411.41 445.429 410.184C449.891 408.959 448.83 410.416 455.181 409.624C461.53 408.836 463.457 406.169 463.649 405.106C463.821 404.167 460.685 403.83 457.318 403.398C456.896 403.343 456.47 403.282 456.044 403.224C452.244 402.686 449.462 399.931 446.009 397.662C442.739 395.517 437.861 386.774 437.861 386.774L429.153 387.547C429.153 387.547 433.722 395.358 435.491 398.756C436.528 400.754 436.473 403.394 436.346 405.434C436.278 406.54 436.212 407.676 436.412 408.785" fill="#E49963"/>
<path d="M445.727 410.099C450.117 408.765 449.073 410.352 455.32 409.489C461.564 408.63 463.46 405.725 463.649 404.568C463.818 403.545 460.733 403.179 457.422 402.707L457.391 402.783C457.391 402.783 453.644 406.092 448.444 406.247C444.207 406.378 439.72 404.862 436.794 404.926C436.726 406.13 436.662 407.367 436.858 408.575C437.409 412.006 441.338 411.434 445.727 410.099" fill="#C65447"/>
<path d="M403.907 345.421L385.405 402.654C385.405 402.654 382.56 402.969 379.838 402.07C377.329 401.237 374.454 399.057 374.454 399.057C374.454 399.057 379.045 344.101 387.46 332.67C395.875 321.243 403.907 345.421 403.907 345.421" fill="#0F6813"/>
<path d="M330.848 322.218C330.848 322.218 384.077 301.427 395.946 305.852C407.818 310.274 443.459 392.193 443.459 392.193C443.459 392.193 442.656 393.427 440.462 394.378C438.418 395.263 433.475 395.209 433.475 395.209C433.475 395.209 401.309 363.358 397.478 354.069C393.647 344.779 392.119 335.933 388.288 336.818C384.457 337.703 338.89 358.49 328.55 346.107C318.21 333.72 320.915 317.628 320.915 317.628L330.848 322.218Z" fill="#008905"/>
<path d="M363.529 226.899C364.375 224.889 365.326 221.31 365.79 214.935C365.719 215.569 364.761 223.609 362.07 228.16C351.017 236.499 329.828 264.341 330.248 269.619C330.248 269.619 322.787 255.076 322.658 254.99C322.658 254.99 308.89 234.873 325.207 223.352C333.498 217.498 333.457 209.983 333.112 203.453C332.76 196.926 335.373 168.823 351.985 176.175C351.985 176.175 354.649 174.817 355.844 175.019C355.844 175.019 354.866 175.233 354.371 175.821C356.298 175.692 359.05 175.856 361.349 177.353C367.439 181.332 372.889 217.004 363.529 226.899" fill="#163560"/>
<path d="M360.989 228.033C361.041 228.06 355.822 231.211 351.897 229.963C348.205 228.795 345.793 223.231 345.842 223.219C347.408 222.858 347.857 220.361 347.824 209.636L348.532 209.796L360.419 212.532C360.419 212.532 360.147 216.875 360.14 220.97C360.13 224.406 360.311 227.668 360.989 228.033" fill="#E49963"/>
<path d="M360.989 212.39C360.989 212.39 360.7 216.761 360.693 220.883C353.63 220.665 349.894 213.57 348.366 209.636L360.989 212.39Z" fill="#D68D5D"/>
<path d="M347.087 207.762C347.087 207.762 343.453 201.21 342.582 195.609C341.96 191.607 343.743 176.781 356.801 178.916C356.801 178.916 360.592 179.345 364.158 182.093C366.993 184.275 371.082 188.991 366.508 201.931L365.319 206.3L347.087 207.762" fill="#163560"/>
<path d="M363.146 216.196C363.146 216.196 346.875 216.497 346.865 205.081C346.855 193.664 344.748 186.013 355.132 185.338C365.52 184.662 367.542 189.016 368.368 192.828C369.195 196.636 367.376 215.822 363.146 216.196" fill="#E49963"/>
<path d="M362.672 184.397C362.672 184.397 358.229 198.262 351.411 200.312C344.59 202.362 341.634 200.225 341.634 200.225C341.634 200.225 344.867 193.095 345.952 184.614C345.952 184.614 359.321 177.797 362.672 184.397" fill="#163560"/>
<path d="M360.989 185.59C360.989 185.59 364.387 188.598 365.217 191.518C366.044 194.442 366.418 200.462 367.999 200.259C367.999 200.259 371.428 191.103 367.574 185.923C363.491 180.433 360.989 185.59 360.989 185.59" fill="#163560"/>
<path d="M325.011 278.539C323.415 270.859 328.841 255.96 334.501 243.627C339.637 232.446 344.971 223.375 345.449 223.703C358.999 232.937 360.224 225.261 360.224 225.261C360.224 225.261 372.531 227.135 376.015 234.026C380.837 243.553 386.084 272.142 391.243 271.717C393.609 271.524 417.434 261.239 417.434 261.239C417.434 261.239 421.401 265.51 420.641 270.751C420.641 270.751 408.878 279.795 398.933 285.565C393.67 288.618 388.914 290.756 386.68 290.153C382.15 288.928 375.072 276.861 371.246 269.758L371.219 269.711C366.339 301.446 372.976 308.674 369.617 312.017C366.07 315.553 360.998 310.335 349.848 315.885C342.531 319.53 332.381 324.798 325.549 325.714C321.965 326.197 319.293 325.482 318.421 322.703C315.887 314.626 328.05 293.175 325.011 278.539Z" fill="#E37970"/>
<path d="M359.306 209.496C359.306 209.496 359.6 210.744 362.683 210.553C362.683 210.553 365.273 210.392 365.195 209.019C365.195 209.019 362.683 208.044 359.306 209.496Z" fill="white"/>
<path d="M318.425 322.68C319.308 325.479 322.014 326.2 325.643 325.713C330.431 323.33 351.121 314.172 350.889 307.969C350.545 298.78 346.912 298.488 349.478 287.149C351.54 278.045 332.425 261.115 329.375 257.435C323.639 269.86 323.483 270.448 325.098 278.185C328.175 292.931 315.859 314.542 318.425 322.68" fill="#C45446"/>
<path d="M371.087 269.342C374.925 276.584 382.024 288.885 386.568 290.134C388.809 290.749 393.579 288.57 398.858 285.457C395.006 286.62 391.263 286.588 387.628 286.179C383.688 285.733 382.544 280.095 376.316 271.639C372.276 266.155 371.287 267.534 371.087 269.342Z" fill="#C45446"/>
<path d="M352.456 287.071C352.456 287.071 355.791 283.996 358.939 284.728C362.087 285.459 363.631 288.024 363.507 289.196C363.382 290.371 361.716 293.667 359.309 293.959C356.903 294.251 350.049 292.2 350.049 292.2L352.456 287.071" fill="#E49963"/>
<path d="M345.367 223.695C345.367 223.695 332.367 224.621 327.868 231.885C321.532 242.113 310.531 283.867 313.529 293.418C313.529 293.418 325.869 294.925 334.685 294.925C339.284 294.925 353.081 293.226 353.081 293.226C353.081 293.226 354.041 288.041 352.709 285.531C351.374 283.025 329.701 278.97 328.701 277.813C327.702 276.656 341.203 255.235 341.203 251.761C341.203 248.29 345.367 223.695 345.367 223.695Z" fill="#E37970"/>
<path d="M351.733 297.614H531.502C533.421 297.614 534.99 299.419 534.99 301.624V306.853C534.99 309.058 533.421 310.864 531.502 310.864H444.644V412.165C459.929 412.871 472.938 418.9 478.246 427.104H405.233C410.499 418.869 423.314 412.875 438.599 412.169V310.864H351.733C349.819 310.864 348.253 309.058 348.253 306.853V301.624C348.253 299.419 349.819 297.614 351.733 297.614" fill="black"/>
<path d="M460.29 253.686C460.29 253.686 455.061 263.203 452.742 275.229C452.742 275.229 451.509 262.332 447.667 257.005C447.667 257.005 450.164 270.881 448.82 278.758L456.956 279.929C456.956 279.929 456.577 263.147 460.29 253.686Z" fill="#82B378"/>
<path d="M440.093 255.561C440.093 255.561 445.809 270.665 447.218 280.866L451.033 279.715C450.813 277.843 446.742 261.543 440.093 255.561Z" fill="#A8D29F"/>
<path d="M467.762 250.762C467.762 250.762 456.338 266.951 453.435 282.185C453.435 282.185 455.342 261.616 449.628 253.619C449.628 253.619 453.574 268.279 450.485 281.482L457.825 283.711C457.825 283.711 461.716 261.523 467.762 250.762" fill="#A8D29F"/>
<path d="M445.142 275.243L445.355 280.792L445.806 292.392L446.012 297.737H459.049L459.346 292.392L459.982 280.792L460.29 275.243H445.142Z" fill="#C45446"/>
<path d="M805.852 428.013H38.1478C37.5162 428.013 37 427.477 37 426.817C37 426.161 37.5162 425.625 38.1478 425.625H805.852C806.486 425.625 807 426.161 807 426.817C807 427.477 806.486 428.013 805.852 428.013Z" fill="#283250"/>
</g>
<defs>
<filter id="filter0_d" x="0" y="0" width="834" height="467.013" filterUnits="userSpaceOnUse" color-interpolation-filters="sRGB">
<feFlood flood-opacity="0" result="BackgroundImageFix"/>
<feColorMatrix in="SourceAlpha" type="matrix" values="0 0 0 0 0 0 0 0 0 0 0 0 0 0 0 0 0 0 127 0"/>
<feOffset dx="-5" dy="7"/>
<feGaussianBlur stdDeviation="16"/>
<feColorMatrix type="matrix" values="0 0 0 0 0 0 0 0 0 0 0 0 0 0 0 0 0 0 0.25 0"/>
<feBlend mode="normal" in2="BackgroundImageFix" result="effect1_dropShadow"/>
<feBlend mode="normal" in="SourceGraphic" in2="effect1_dropShadow" result="shape"/>
</filter>
</defs>
</svg>
